<?xml version="1.0" encoding="UTF-8" standalone="no"?>
<!-- Created with Inkscape (http://www.inkscape.org/) -->

<svg
   width="32"
   height="32"
   viewBox="0 0 32 32"
   version="1.1"
   id="svg1"
   sodipodi:docname="0.svg"
   inkscape:version="1.4.2 (ebf0e940d0, 2025-05-08)"
   xmlns:inkscape="http://www.inkscape.org/namespaces/inkscape"
   xmlns:sodipodi="http://sodipodi.sourceforge.net/DTD/sodipodi-0.dtd"
   xmlns="http://www.w3.org/2000/svg"
   xmlns:svg="http://www.w3.org/2000/svg">
  <sodipodi:namedview
     id="namedview1"
     pagecolor="#ffffff"
     bordercolor="#000000"
     borderopacity="0.25"
     inkscape:showpageshadow="2"
     inkscape:pageopacity="0.0"
     inkscape:pagecheckerboard="0"
     inkscape:deskcolor="#d1d1d1"
     inkscape:zoom="16.46875"
     inkscape:cx="15.969639"
     inkscape:cy="16"
     inkscape:window-width="1356"
     inkscape:window-height="728"
     inkscape:window-x="0"
     inkscape:window-y="0"
     inkscape:window-maximized="1"
     inkscape:current-layer="svg1" />
  <defs
     id="defs1" />
  <g
     inkscape:groupmode="layer"
     id="layer3"
     inkscape:label="SkinNull">
    <path
       style="baseline-shift:baseline;display:inline;overflow:visible;vector-effect:none;fill:#737373;fill-opacity:1;enable-background:accumulate;stop-color:#000000"
       d="M 31,16 A 15,15 0 0 1 16,31 15,15 0 0 1 1,16 15,15 0 0 1 16,1 15,15 0 0 1 31,16 Z"
       id="path8"
       inkscape:label="M" />
    <path
       id="path11"
       style="baseline-shift:baseline;display:inline;overflow:visible;opacity:1;vector-effect:none;fill:#666666;fill-opacity:1;enable-background:accumulate;stop-color:#000000;stop-opacity:1"
       d="M 15,1 V 1.021484 C 6.9026694,1.3817747 1.8170052,6.1569544 1.0898438,14 H 1 v 2 2 H 1.089844 C 1.8170014,25.843004 6.9027445,30.61818 15,30.978516 V 31 h 1 c 0.177381,-8.69e-4 0.353812,-0.0026 0.527344,-0.0059 C 17.97136,30.96737 19.280786,30.851046 20.4375,30.521443 26.525928,29.115094 30.292097,24.666286 30.910156,18 H 31 V 16 14 H 30.91016 C 30.302834,7.4495225 26.655093,3.0402989 20.751953,1.5546875 19.384352,1.11116 17.789571,1 16,1 Z m 0.675781,2 H 16 c 2.185259,0 3.693221,1.2041345 4.984375,3.6210938 0.630767,1.1807543 1.12913,2.6263434 1.472656,4.2050782 -0.450621,0.316201 -0.845082,0.705634 -1.169922,1.136719 C 20.834988,12.56289 20.495894,13.253119 20.279297,14 H 3.1464844 C 4.0864431,7.8534168 9.2957525,3.1541523 15.675781,3 Z m 9.923828,4.2089844 c 1.087436,1.1876475 1.957401,2.579899 2.544922,4.1132816 C 27.661998,10.859343 27.085342,10.482807 26.441406,10.251953 26.226444,9.2029983 25.946575,8.1832075 25.599609,7.2089844 Z M 3.1464844,18 H 20.279297 c 0.216597,0.746881 0.555691,1.43711 1.007812,2.037109 0.323114,0.428795 0.714474,0.815565 1.16211,1.13086 -0.343105,1.566851 -0.838116,3.00342 -1.464844,4.179687 C 19.692324,27.772628 18.173257,28.989289 15.988281,29 l -0.246093,0.002 c -0.0026,-5e-5 -0.0052,5.2e-5 -0.0078,0 C 9.3275184,28.875409 4.0893349,24.165494 3.1464844,18 Z m 24.9980466,2.677734 c -0.591591,1.544005 -1.468388,2.945647 -2.566406,4.138672 0.35227,-0.980608 0.635108,-2.007845 0.853516,-3.064453 0.647771,-0.230556 1.227984,-0.60902 1.71289,-1.074219 z"
       inkscape:label="S" />
    <path
       style="baseline-shift:baseline;display:inline;overflow:visible;vector-effect:none;fill:#ffffff;enable-background:accumulate;stop-color:#000000"
       d="M 28.0574,16 A 3.0574005,4.0573983 0 0 1 25,20.057398 3.0574005,4.0573983 0 0 1 21.9426,16 3.0574005,4.0573983 0 0 1 25,11.942602 3.0574005,4.0573983 0 0 1 28.0574,16 Z"
       id="path25"
       inkscape:label="C" />
    <path
       id="path10"
       style="baseline-shift:baseline;display:inline;overflow:visible;opacity:1;vector-effect:none;fill:#999999;enable-background:accumulate;stop-color:#000000;stop-opacity:1"
       d="M 16,0 V 0.00390625 C 7.1773991,0.00390625 0.00390625,7.1773991 0.00390625,16 0.00390625,24.822601 7.1773991,31.996094 16,31.996094 h 0.0059 V 32 c 0.09536,-4.67e-4 0.191066,-0.002 0.285157,-0.0059 C 24.980255,31.838984 31.996094,24.725719 31.996094,16 31.996094,7.2931144 25.00896,0.19257851 16.345703,0.0078125 16.231218,0.00276685 16.116367,0 16,0 Z m 0,1.9960938 V 2 c 2.58415,0 4.476009,1.5461927 5.867188,4.1503906 0.782605,1.4649887 1.359692,3.2483915 1.714843,5.1718754 -0.587433,0.277051 -1.098978,0.715185 -1.496093,1.242187 C 21.574129,13.243662 21.225047,14.07968 21.078125,15 H 2.03125 C 2.542406,7.7225094 8.5903262,1.9960937 16,1.9960938 Z m 6.677734,1.6855468 C 26.769586,5.9003086 29.624485,10.098586 29.96875,15 H 28.921875 C 28.774953,14.07968 28.425873,13.243662 27.914062,12.564453 27.336503,11.79799 26.517036,11.220584 25.574219,11.050781 25.192908,8.9281681 24.551104,6.9279658 23.632812,5.2089844 23.345661,4.6714557 23.027467,4.1594264 22.677734,3.6816406 Z M 25,12.884766 c 0.506259,0 0.993602,0.264246 1.408203,0.814453 0.414601,0.550207 0.707031,1.372294 0.707031,2.300781 0,0.928487 -0.29243,1.750574 -0.707031,2.300781 -0.414601,0.550207 -0.901944,0.814453 -1.408203,0.814453 -0.506259,0 -0.993602,-0.264246 -1.408203,-0.814453 C 23.177196,17.750574 22.884766,16.928487 22.884766,16 c 0,-0.928487 0.29243,-1.750574 0.707031,-2.300781 C 24.006398,13.149012 24.493741,12.884766 25,12.884766 Z M 2.03125,17 h 19.046875 c 0.146922,0.92032 0.496004,1.756338 1.007813,2.435547 0.395539,0.52491 0.903779,0.961063 1.488281,1.238281 -0.355472,1.911251 -0.928979,3.68425 -1.707031,5.144531 C 20.475345,28.43062 18.578306,29.987332 15.994141,30 v 0.0039 C 8.5871273,30.0009 2.5422717,24.27558 2.03125,17 Z m 26.890625,0 h 1.046875 c -0.345228,4.915129 -3.215944,9.122179 -7.326172,11.335938 0.363165,-0.492865 0.693616,-1.02142 0.990234,-1.578126 0.911767,-1.711238 1.551175,-3.700218 1.933594,-5.808593 0.945965,-0.168091 1.76857,-0.74518 2.347656,-1.513672 C 28.425872,18.756338 28.774953,17.92032 28.921875,17 Z"
       inkscape:label="K" />
  </g>
</svg>
